<?xml version="1.0" standalone="no"?>
<!DOCTYPE svg PUBLIC "-//W3C//DTD SVG 20010904//EN" "http://www.w3.org/TR/2001/REC-SVG-20010904/DTD/svg10.dtd">
<svg xmlns="http://www.w3.org/2000/svg" version="1.0" width="512.000000pt" height="512.000000pt" viewBox="0 0 512.000000 512.000000" preserveAspectRatio="xMidYMid meet">
<metadata>
Created by potrace 1.16, written by Peter Selinger 2001-2019
<meta name="Producer" content="Online-Convert"/></metadata>
<g transform="translate(0.000000,512.000000) scale(0.100000,-0.100000)" fill="#000000" stroke="none">
<path d="M4345 3592 c-237 -137 -482 -280 -546 -318 -64 -38 -222 -130 -352 -204 -1057 -603 -1537 -882 -1537 -894 1 -15 51 -81 108 -140 68 -71 138 -121 224 -161 108 -50 194 -68 318 -68 203 0 379 70 522 209 39 38 106 118 135 163 4 6 653 -373 653 -382 0 -21 -130 -195 -207 -277 -215 -228 -510 -389 -826 -452 -158 -31 -396 -31 -554 0 -215 43 -432 135 -606 259 -144 102 -335 309 -422 458 -10 16 -56 -8 -440 -230 -237 -136 -440 -254 -453 -261 -21 -14 -21 -17 -8 -42 37 -71 108 -115 1056 -663 525 -304 978 -560 1005 -570 69 -25 221 -25 290 0 28 9 480 266 1005 570 1002 579 1019 590 1073 690 60 110 58 50 55 1302 l-3 1144 -23 58 c-13 31 -27 57 -31 57 -4 0 -200 -112 -436 -248z m-435 -862 l0 -79 83 -3 82 -3 0 -85 0 -85 -82 -3 -83 -3 0 -79 0 -80 -85 0 -85 0 0 80 0 80 -85 0 -85 0 0 90 0 90 85 0 85 0 0 80 0 80 85 0 85 0 0 -80z m630 0 l0 -80 85 0 85 0 0 -90 0 -90 -85 0 -85 0 0 -80 0 -80 -85 0 -85 0 0 80 0 80 -85 0 -85 0 0 90 0 90 85 0 85 0 0 80 0 80 85 0 85 0 0 -80z"/>
</g>
</svg>
